<svg width="362" height="363" viewBox="0 0 362 363" fill="none" xmlns="http://www.w3.org/2000/svg">
<path d="M2.55191 159.821L11.8956 145.329L91.6256 199.882L82.2819 214.374C78.0778 220.518 56.8222 213.287 34.8048 198.222C12.7884 183.158 -1.65219 165.965 2.55191 159.821Z" fill="#D3A531"/>
<path d="M91.6266 199.884C95.8305 193.74 81.3903 176.548 59.3735 161.483C37.3568 146.418 16.1008 139.186 11.8969 145.33C7.69306 151.474 22.1332 168.667 44.15 183.732C66.1667 198.796 87.4227 206.028 91.6266 199.884Z" fill="#FCCF4F"/>
<path d="M41.2066 176.194C40.6134 175.708 40.0371 175.222 39.4746 174.738C40.7662 175.708 42.1054 176.671 43.4952 177.622C58.0756 187.599 72.1521 192.387 74.9366 188.319C77.0645 185.209 71.9775 177.823 62.9503 170.06C62.6646 169.815 62.3759 169.569 62.0833 169.323C62.6973 169.804 63.2975 170.285 63.8838 170.765C73.9823 179.047 79.8629 187.176 77.6021 190.479C74.8186 194.549 60.7411 189.759 46.1607 179.783C44.4336 178.601 42.78 177.4 41.2066 176.194Z" fill="#FFF7CF"/>
<path d="M24.8004 154.351C24.8033 154.346 24.8083 154.342 24.8113 154.337C24.8152 154.331 24.8182 154.324 24.8222 154.318C27.6057 150.249 41.6832 155.038 56.2636 165.015C57.9897 166.196 59.6434 167.398 61.2167 168.604C61.5093 168.844 61.797 169.083 62.0817 169.322C62.3753 169.568 62.664 169.814 62.9487 170.059C61.6571 169.09 60.3179 168.127 58.9281 167.175C44.3477 157.199 30.2712 152.41 27.4867 156.479C25.3589 159.589 30.4458 166.974 39.473 174.737C40.0355 175.221 40.6128 175.707 41.2051 176.193C29.4905 167.212 22.3452 157.938 24.8004 154.351Z" fill="#B5851C"/>
<path d="M27.4876 156.479C30.2711 152.41 44.3486 157.199 58.929 167.175C60.3188 168.126 61.658 169.09 62.9496 170.059C71.9758 177.823 77.0638 185.208 74.9359 188.318C72.1524 192.387 58.0749 187.598 43.4945 177.621C42.1047 176.671 40.7655 175.707 39.4739 174.737C30.4467 166.975 25.3598 159.59 27.4876 156.479Z" fill="#E0AF34"/>
<path d="M108.922 133.005C133.531 133.005 153.481 113.055 153.481 88.4464C153.481 63.8373 133.531 43.8877 108.922 43.8877C84.3129 43.8877 64.3633 63.8373 64.3633 88.4464C64.3633 113.055 84.3129 133.005 108.922 133.005Z" fill="#FFF7CF"/>
<path d="M111.846 137.484C136.455 137.484 156.404 117.534 156.404 92.9251C156.404 68.316 136.455 48.3665 111.846 48.3665C87.2367 48.3665 67.2871 68.316 67.2871 92.9251C67.2871 117.534 87.2367 137.484 111.846 137.484Z" fill="#FCCF4F"/>
<path d="M85.8968 77.6168C86.3313 77.0206 86.7876 76.4442 87.2618 75.8867C86.5634 77.221 85.9524 78.6207 85.4544 80.0918C80.2216 95.5263 88.4919 112.28 103.925 117.512C115.723 121.512 128.29 117.62 135.895 108.672C136.135 108.39 136.371 108.102 136.602 107.809C136.214 108.435 135.805 109.044 135.376 109.635C127.978 119.8 114.576 124.454 102.042 120.205C86.6071 114.973 78.3378 98.2186 83.5706 82.7851C84.1896 80.9558 84.9752 79.2327 85.8968 77.6168Z" fill="#FFF7CF"/>
<path d="M120.991 64.312C121.01 64.318 121.028 64.3259 121.047 64.3319C121.07 64.3398 121.094 64.3458 121.116 64.3537C136.551 69.5865 144.82 86.3404 139.587 101.774C138.967 103.601 138.182 105.324 137.26 106.94C137.046 107.234 136.826 107.523 136.602 107.807C136.371 108.1 136.135 108.388 135.894 108.67C136.593 107.336 137.204 105.936 137.702 104.465C142.935 89.0307 134.664 72.2768 119.231 67.045C107.433 63.0453 94.8662 66.9369 87.2615 75.8847C86.7873 76.4422 86.331 77.0186 85.8965 77.6148C92.7572 65.5838 107.384 59.6992 120.991 64.312Z" fill="#B5851C"/>
<path d="M119.232 67.046C134.666 72.2788 142.936 89.0327 137.703 104.466C137.204 105.937 136.593 107.337 135.896 108.671C128.291 117.619 115.724 121.511 103.926 117.511C88.4918 112.278 80.2225 95.5243 85.4553 80.0908C85.9543 78.6197 86.5654 77.2199 87.2628 75.8857C94.8674 66.9389 107.434 63.0462 119.232 67.046Z" fill="#E0AF34"/>
<path d="M298.245 70.9743C277.272 44.1258 247.207 32.2386 229.448 43.1764L229.428 43.1705C229.428 43.1705 215.841 48.7971 208.553 58.0445L216.306 67.8752C215.323 83.4159 221.892 102.825 235.377 120.088C249.077 137.626 266.659 148.786 282.156 151.37L287.378 157.991C287.378 157.991 300.034 153.261 307.913 145.097C307.922 145.088 307.929 145.078 307.937 145.069C323.604 130.783 319.515 98.2007 298.245 70.9743Z" fill="#FFF7CF"/>
<path d="M292.488 154.886C309.848 141.324 306.162 107.598 284.255 79.5563C262.349 51.5149 230.517 39.7768 213.157 53.3387C195.798 66.9005 199.483 100.627 221.39 128.668C243.296 156.709 275.128 168.448 292.488 154.886Z" fill="#FCCF4F"/>
<path d="M268.154 80.8337C267.373 80.1522 266.582 79.4995 265.786 78.8726C267.275 80.4399 268.72 82.1025 270.103 83.8722C284.611 102.443 287.051 124.779 275.554 133.761C266.766 140.627 252.379 137.699 239.607 127.645C239.203 127.328 238.8 127.003 238.4 126.671C239.156 127.397 239.922 128.098 240.695 128.772C254.018 140.385 269.675 144.142 279.011 136.848C290.508 127.866 288.068 105.531 273.56 86.9593C271.842 84.7621 270.029 82.7195 268.154 80.8337Z" fill="#FFF7CF"/>
<path d="M226.474 69.5973C226.46 69.6082 226.447 69.6201 226.434 69.631C226.417 69.6439 226.398 69.6558 226.381 69.6697C214.884 78.6513 217.324 100.987 231.832 119.558C233.55 121.758 235.363 123.799 237.237 125.686C237.623 126.022 238.011 126.35 238.4 126.673C238.801 127.005 239.203 127.329 239.606 127.647C238.117 126.08 236.672 124.417 235.289 122.647C220.781 104.076 218.341 81.7404 229.838 72.7588C238.626 65.8932 253.013 68.8206 265.785 78.8745C266.582 79.5014 267.372 80.1532 268.154 80.8357C254.193 66.789 236.61 61.6792 226.474 69.5973Z" fill="#B5851C"/>
<path d="M229.838 72.7579C218.341 81.7394 220.781 104.075 235.289 122.647C236.672 124.416 238.117 126.08 239.606 127.646C252.378 137.699 266.765 140.628 275.553 133.762C287.051 124.78 284.61 102.444 270.102 83.8732C268.72 82.1035 267.274 80.4399 265.785 78.8736C253.014 68.8196 238.627 65.8922 229.838 72.7579Z" fill="#E0AF34"/>
<path d="M184.213 261.728C225.408 261.728 258.804 228.332 258.804 187.136C258.804 145.941 225.408 112.545 184.213 112.545C143.017 112.545 109.621 145.941 109.621 187.136C109.621 228.332 143.017 261.728 184.213 261.728Z" fill="#D3A531"/>
<path d="M180.691 254.027C221.887 254.027 255.283 220.631 255.283 179.435C255.283 138.24 221.887 104.844 180.691 104.844C139.495 104.844 106.1 138.24 106.1 179.435C106.1 220.631 139.495 254.027 180.691 254.027Z" fill="#F9DB7A"/>
<path d="M230.057 169.113C229.689 167.933 229.275 166.775 228.823 165.636C229.213 168.127 229.429 170.674 229.429 173.274C229.429 200.555 207.314 222.672 180.032 222.672C159.178 222.672 141.348 209.748 134.1 191.474C133.871 190.897 133.651 190.314 133.443 189.726C133.721 190.928 134.043 192.112 134.407 193.279C140.671 213.37 159.418 227.953 181.572 227.953C208.853 227.953 230.97 205.838 230.97 178.556C230.969 175.325 230.648 172.17 230.057 169.113Z" fill="#FFF7CF"/>
<path d="M181.572 129.158C181.539 129.158 181.506 129.16 181.474 129.16C181.433 129.16 181.393 129.158 181.353 129.158C154.072 129.158 131.955 151.274 131.955 178.556C131.955 181.786 132.274 184.94 132.867 187.997C133.048 188.579 133.243 189.154 133.444 189.726C133.651 190.315 133.872 190.897 134.101 191.474C133.711 188.983 133.495 186.436 133.495 183.836C133.495 156.555 155.61 134.438 182.892 134.438C203.746 134.438 221.576 147.362 228.824 165.636C229.276 166.776 229.69 167.933 230.058 169.113C225.65 146.349 205.623 129.158 181.572 129.158Z" fill="#D3A531"/>
<path d="M182.892 134.438C155.611 134.438 133.494 156.554 133.494 183.836C133.494 186.436 133.71 188.984 134.1 191.475C141.347 209.748 159.178 222.672 180.032 222.672C207.313 222.672 229.429 200.556 229.429 173.274C229.429 170.674 229.213 168.127 228.823 165.636C221.576 147.362 203.746 134.438 182.892 134.438Z" fill="#FCCF4F"/>
<path d="M163.155 202.105C169.636 196.463 176.116 190.82 182.595 185.178C182.606 185.169 182.607 185.151 182.597 185.14C178.308 180.098 174.019 175.054 169.73 170.012C169.708 169.987 169.743 169.951 169.769 169.973C177.727 176.391 185.685 182.811 193.643 189.23C193.659 189.242 193.655 189.268 193.636 189.276C183.485 193.568 173.333 197.86 163.183 202.151C163.154 202.164 163.131 202.127 163.154 202.106L163.155 202.105Z" fill="#091227"/>
<path d="M201.096 153.55C194.708 159.031 188.32 164.512 181.931 169.992C181.848 170.062 181.837 170.186 181.907 170.27C186.082 175.314 190.258 180.359 194.433 185.402C194.466 185.442 194.414 185.496 194.374 185.464C186.343 179.245 178.313 173.025 170.28 166.806C170.254 166.785 170.26 166.745 170.29 166.732C180.544 162.313 190.797 157.894 201.051 153.476C201.096 153.456 201.135 153.516 201.096 153.549V153.55Z" fill="#091227"/>
<path d="M191.601 201.27C193.378 201.27 194.818 199.83 194.818 198.053C194.818 196.277 193.378 194.837 191.601 194.837C189.825 194.837 188.385 196.277 188.385 198.053C188.385 199.83 189.825 201.27 191.601 201.27Z" fill="#091227"/>
<path d="M172.625 160.779C174.401 160.779 175.842 159.339 175.842 157.563C175.842 155.786 174.401 154.346 172.625 154.346C170.848 154.346 169.408 155.786 169.408 157.563C169.408 159.339 170.848 160.779 172.625 160.779Z" fill="#091227"/>
<path d="M239.535 120.602C244.276 116.475 249.017 112.347 253.757 108.22C253.765 108.213 253.766 108.199 253.759 108.191C250.621 104.503 247.483 100.813 244.345 97.124C244.329 97.1059 244.355 97.0798 244.374 97.0958C250.195 101.791 256.017 106.488 261.839 111.183C261.851 111.192 261.848 111.211 261.834 111.217C254.408 114.357 246.981 117.497 239.555 120.637C239.534 120.646 239.517 120.618 239.534 120.603L239.535 120.602Z" fill="#091227"/>
<path d="M267.293 85.0812C262.619 89.0908 257.946 93.1004 253.272 97.11C253.211 97.1613 253.203 97.2518 253.254 97.3132C256.309 101.003 259.364 104.694 262.418 108.384C262.442 108.413 262.404 108.452 262.375 108.429C256.5 103.879 250.625 99.3285 244.749 94.7789C244.729 94.7638 244.733 94.7347 244.756 94.7246C252.257 91.4924 259.758 88.2591 267.259 85.0269C267.293 85.0128 267.321 85.0561 267.293 85.0802V85.0812Z" fill="#091227"/>
<path d="M260.345 119.992C261.645 119.992 262.699 118.938 262.699 117.639C262.699 116.339 261.645 115.285 260.345 115.285C259.046 115.285 257.992 116.339 257.992 117.639C257.992 118.938 259.046 119.992 260.345 119.992Z" fill="#091227"/>
<path d="M246.463 90.3699C247.762 90.3699 248.816 89.3163 248.816 88.0166C248.816 86.7169 247.762 85.6633 246.463 85.6633C245.163 85.6633 244.109 86.7169 244.109 88.0166C244.109 89.3163 245.163 90.3699 246.463 90.3699Z" fill="#091227"/>
<path d="M359.433 224.321L342.28 207.168L248.846 305.865L265.998 323.018C273.604 330.218 300.686 313.961 326.488 286.707C352.288 259.452 367.039 231.522 359.433 224.321Z" fill="#FFF7CF"/>
<path d="M309.34 269.561C335.142 242.307 349.892 214.375 342.287 207.175C334.681 199.974 307.598 216.231 281.797 243.485C255.995 270.74 241.244 298.671 248.85 305.871C256.456 313.072 283.538 296.815 309.34 269.561Z" fill="#F9DB7A"/>
<path d="M311.141 258.315C311.811 257.471 312.46 256.632 313.091 255.8C311.603 257.516 310.048 259.239 308.419 260.959C291.332 279.009 273.397 289.775 268.361 285.006C264.511 281.362 269.313 269.695 279.42 256.338C279.739 255.916 280.064 255.492 280.394 255.067C279.693 255.91 279.01 256.75 278.347 257.585C266.921 271.972 261.248 284.897 265.338 288.77C270.376 293.538 288.31 282.772 305.396 264.723C307.419 262.585 309.335 260.442 311.141 258.315Z" fill="#FFF7CF"/>
<path d="M327.214 223.407C327.209 223.401 327.201 223.397 327.195 223.391C327.187 223.384 327.182 223.375 327.174 223.368C322.137 218.6 304.202 229.366 287.116 247.415C285.093 249.552 283.177 251.695 281.37 253.822C281.04 254.238 280.714 254.653 280.394 255.067C280.064 255.492 279.739 255.916 279.42 256.339C280.908 254.622 282.463 252.899 284.092 251.179C301.178 233.13 319.114 222.364 324.15 227.132C328 230.777 323.198 242.444 313.09 255.8C312.46 256.633 311.811 257.471 311.14 258.316C324.585 242.485 331.655 227.611 327.214 223.407Z" fill="#D3A531"/>
<path d="M324.149 227.132C319.113 222.364 301.177 233.13 284.091 251.179C282.462 252.899 280.907 254.622 279.419 256.339C269.311 269.695 264.509 281.362 268.36 285.006C273.396 289.775 291.332 279.009 308.418 260.959C310.046 259.239 311.602 257.516 313.09 255.8C323.197 242.444 327.999 230.777 324.149 227.132Z" fill="#FCCF4F"/>
<path d="M284.186 256.38C287.814 256.615 291.443 256.85 295.071 257.085C295.078 257.085 295.083 257.08 295.084 257.074C295.297 254.28 295.511 251.487 295.724 248.693C295.725 248.679 295.746 248.679 295.747 248.693C296.226 252.993 296.705 257.294 297.185 261.594C297.186 261.603 297.177 261.609 297.169 261.606C292.839 259.871 288.509 258.137 284.18 256.402C284.168 256.397 284.172 256.379 284.185 256.38L284.186 256.38Z" fill="#091227"/>
<path d="M310.056 253.091C306.503 252.835 302.95 252.579 299.397 252.323C299.351 252.319 299.311 252.353 299.307 252.399C299.059 255.159 298.811 257.92 298.563 260.679C298.561 260.701 298.53 260.702 298.527 260.68C297.966 256.418 297.406 252.156 296.845 247.894C296.843 247.88 296.857 247.869 296.87 247.874C301.268 249.601 305.667 251.328 310.065 253.055C310.084 253.063 310.078 253.092 310.057 253.091L310.056 253.091Z" fill="#091227"/>
<path d="M292.984 264.605C293.518 265.134 294.379 265.13 294.909 264.596C295.438 264.062 295.434 263.2 294.9 262.671C294.366 262.142 293.504 262.146 292.975 262.679C292.446 263.213 292.45 264.075 292.984 264.605Z" fill="#091227"/>
<path d="M299.345 246.781C299.879 247.31 300.741 247.307 301.27 246.773C301.799 246.239 301.796 245.377 301.262 244.847C300.728 244.318 299.866 244.322 299.337 244.856C298.807 245.39 298.811 246.252 299.345 246.781Z" fill="#091227"/>
<path d="M77.2448 337.203C50.3963 316.23 38.5091 286.165 49.4469 268.406L49.441 268.386C49.441 268.386 55.0676 254.799 64.315 247.511L74.1458 255.264C89.6864 254.282 109.096 260.85 126.359 274.335C143.896 288.035 155.056 305.617 157.64 321.114L164.261 326.336C164.261 326.336 159.531 338.992 151.367 346.871C151.358 346.88 151.348 346.887 151.339 346.895C137.053 362.562 104.471 358.473 77.2448 337.203Z" fill="#D3A531"/>
<path d="M161.138 331.464C174.7 314.104 162.962 282.272 134.92 260.366C106.879 238.459 73.1528 234.773 59.591 252.133C46.0292 269.493 57.7672 301.325 85.8087 323.231C113.85 345.138 147.576 348.823 161.138 331.464Z" fill="#F9DB7A"/>
<path d="M87.1038 307.112C86.4223 306.33 85.7695 305.54 85.1426 304.743C86.7099 306.232 88.3725 307.678 90.1423 309.06C108.713 323.568 131.049 326.009 140.031 314.512C146.897 305.723 143.969 291.336 133.915 278.564C133.598 278.161 133.273 277.758 132.941 277.358C133.667 278.114 134.368 278.88 135.042 279.653C146.656 292.976 150.412 308.633 143.118 317.969C134.136 329.466 111.801 327.026 93.2294 312.518C91.0321 310.799 88.9906 308.987 87.1038 307.112Z" fill="#FFF7CF"/>
<path d="M75.8681 265.431C75.879 265.417 75.8909 265.405 75.9018 265.391C75.9147 265.374 75.9266 265.355 75.9405 265.338C84.9221 253.841 107.258 256.281 125.829 270.789C128.028 272.507 130.07 274.319 131.956 276.194C132.292 276.58 132.619 276.968 132.943 277.357C133.275 277.758 133.599 278.16 133.917 278.563C132.35 277.074 130.687 275.629 128.917 274.246C110.346 259.738 88.0102 257.298 79.0286 268.795C72.163 277.583 75.0904 291.97 85.1443 304.742C85.7712 305.539 86.423 306.329 87.1055 307.111C73.0597 293.149 67.9499 275.567 75.8681 265.431Z" fill="#D3A531"/>
<path d="M79.0289 268.795C88.0104 257.298 110.346 259.738 128.918 274.246C130.687 275.629 132.351 277.074 133.917 278.563C143.97 291.335 146.899 305.722 140.033 314.51C131.051 326.008 108.715 323.567 90.1442 309.059C88.3745 307.677 86.7109 306.231 85.1445 304.742C75.0906 291.971 72.1632 277.583 79.0289 268.795Z" fill="#FCCF4F"/>
<path d="M108.584 271.549C108.27 277.336 107.956 283.123 107.642 288.909C107.642 288.919 107.65 288.928 107.659 288.928C112.115 289.222 116.571 289.516 121.026 289.81C121.049 289.81 121.05 289.844 121.027 289.846C114.182 290.682 107.336 291.517 100.491 292.352C100.477 292.355 100.466 292.34 100.471 292.327C103.163 285.398 105.856 278.469 108.549 271.54C108.556 271.52 108.585 271.526 108.584 271.547L108.584 271.549Z" fill="#091227"/>
<path d="M114.255 312.723C114.604 307.056 114.953 301.39 115.303 295.723C115.307 295.65 115.253 295.586 115.179 295.581C110.777 295.231 106.373 294.882 101.971 294.533C101.936 294.53 101.934 294.48 101.968 294.475C108.751 293.511 115.535 292.547 122.319 291.582C122.341 291.579 122.357 291.6 122.35 291.621C119.67 298.659 116.992 305.698 114.312 312.736C114.3 312.767 114.253 312.758 114.256 312.724L114.255 312.723Z" fill="#091227"/>
<path d="M95.6232 285.707C94.7885 286.567 94.8088 287.94 95.6686 288.775C96.5283 289.61 97.902 289.59 98.7367 288.73C99.5714 287.87 99.5511 286.496 98.6913 285.662C97.8316 284.827 96.4579 284.847 95.6232 285.707Z" fill="#091227"/>
<path d="M124.135 295.548C123.3 296.408 123.321 297.782 124.18 298.616C125.04 299.451 126.414 299.431 127.248 298.571C128.083 297.711 128.063 296.337 127.203 295.503C126.343 294.668 124.97 294.688 124.135 295.548Z" fill="#091227"/>
<path d="M49.3238 163.404C49.197 165.738 49.0704 168.072 48.9439 170.406C48.9437 170.41 48.9469 170.414 48.9509 170.414C50.748 170.532 52.5454 170.651 54.3426 170.769C54.3516 170.77 54.352 170.783 54.3428 170.784C51.5817 171.121 48.8203 171.458 46.0592 171.795C46.0536 171.796 46.0493 171.79 46.0514 171.785C47.1373 168.99 48.2235 166.195 49.3095 163.4C49.3126 163.392 49.3242 163.395 49.3238 163.403L49.3238 163.404Z" fill="#091227"/>
<path d="M51.6101 180.012C51.7509 177.727 51.8916 175.441 52.0327 173.155C52.0346 173.125 52.0126 173.1 51.9829 173.098C50.2071 172.957 48.4308 172.816 46.655 172.675C46.641 172.674 46.6404 172.653 46.6541 172.652C49.3901 172.263 52.1264 171.874 54.8627 171.484C54.8717 171.483 54.8784 171.492 54.8754 171.5C53.7945 174.339 52.714 177.179 51.6332 180.018C51.6283 180.03 51.6095 180.026 51.6104 180.013L51.6101 180.012Z" fill="#091227"/>
<path d="M44.0954 169.115C43.7587 169.462 43.7669 170.016 44.1137 170.353C44.4605 170.689 45.0146 170.681 45.3513 170.334C45.688 169.987 45.6798 169.433 45.333 169.097C44.9862 168.76 44.4321 168.768 44.0954 169.115Z" fill="#091227"/>
<path d="M55.5954 173.084C55.2587 173.431 55.2669 173.985 55.6137 174.322C55.9605 174.658 56.5146 174.65 56.8513 174.303C57.188 173.957 57.1798 173.403 56.833 173.066C56.4862 172.729 55.9321 172.737 55.5954 173.084Z" fill="#091227"/>
<path d="M110.247 74.1386C109.955 79.4996 109.665 84.8612 109.374 90.2216C109.373 90.2307 109.381 90.2391 109.39 90.2396C113.517 90.5115 117.646 90.7839 121.773 91.0558C121.794 91.0567 121.795 91.0877 121.774 91.0898C115.432 91.8639 109.09 92.6375 102.749 93.4116C102.736 93.4136 102.726 93.4004 102.731 93.3881C105.225 86.9692 107.719 80.5496 110.214 74.1306C110.221 74.1123 110.247 74.118 110.246 74.1374L110.247 74.1386Z" fill="#091227"/>
<path d="M115.501 112.283C115.825 107.034 116.148 101.784 116.472 96.5337C116.476 96.4662 116.426 96.4075 116.358 96.4024C112.279 96.0788 108.199 95.7552 104.121 95.4315C104.089 95.429 104.087 95.3822 104.119 95.3781C110.403 94.4846 116.687 93.5916 122.972 92.6974C122.992 92.6947 123.008 92.7145 123.001 92.7341C120.518 99.2543 118.037 105.775 115.554 112.295C115.543 112.324 115.5 112.316 115.502 112.284L115.501 112.283Z" fill="#091227"/>
<path d="M98.2389 87.2554C97.4656 88.0519 97.4844 89.3244 98.2809 90.0977C99.0774 90.871 100.35 90.8522 101.123 90.0557C101.897 89.2592 101.878 87.9867 101.081 87.2134C100.285 86.4401 99.0122 86.4589 98.2389 87.2554Z" fill="#091227"/>
<path d="M124.651 96.3721C123.878 97.1686 123.897 98.4411 124.693 99.2144C125.49 99.9877 126.762 99.9689 127.535 99.1724C128.309 98.3759 128.29 97.1034 127.493 96.3301C126.697 95.5568 125.424 95.5756 124.651 96.3721Z" fill="#091227"/>
<path opacity="0.5" d="M1.82425 140.584C1.27766 134.097 0.991968 127.611 0.797536 121.124C0.67552 117.88 0.648736 114.637 0.577312 111.393L0.503906 101.663L0.573346 91.9323C0.646754 88.6885 0.670562 85.4456 0.79357 82.2018C0.98701 75.7151 1.27369 69.2284 1.82425 62.7417C2.37382 69.2284 2.6615 75.7151 2.85494 82.2018C2.97795 85.4456 3.00077 88.6885 3.07517 91.9323L3.14461 101.663L3.0712 111.393C2.99978 114.637 2.97299 117.88 2.85098 121.124C2.65654 127.611 2.37084 134.097 1.82425 140.584Z" fill="white"/>
<path opacity="0.5" d="M89.9258 300.648C89.3792 294.161 89.0935 287.675 88.8991 281.188C88.7771 277.944 88.7503 274.701 88.6789 271.458L88.6055 261.727L88.6749 251.996C88.7483 248.753 88.7721 245.51 88.8951 242.266C89.0886 235.779 89.3753 229.293 89.9258 222.806C90.4754 229.293 90.7631 235.779 90.9565 242.266C91.0795 245.51 91.1023 248.753 91.1767 251.996L91.2462 261.727L91.1728 271.458C91.1014 274.701 91.0746 277.944 90.9526 281.188C90.7581 287.675 90.4724 294.161 89.9258 300.648Z" fill="white"/>
<path opacity="0.5" d="M111.578 121.262C111.032 114.775 110.746 108.288 110.551 101.802C110.429 98.5578 110.403 95.3149 110.331 92.0711L110.258 82.3406L110.327 72.61C110.401 69.3662 110.424 66.1233 110.547 62.8795C110.741 56.3928 111.028 49.9061 111.578 43.4194C112.128 49.9061 112.415 56.3928 112.609 62.8795C112.732 66.1233 112.755 69.3662 112.829 72.61L112.899 82.3406L112.825 92.0711C112.754 95.3149 112.727 98.5578 112.605 101.802C112.409 108.288 112.124 114.775 111.578 121.262Z" fill="white"/>
<path opacity="0.5" d="M13.5938 123.304C13.0472 120.227 12.7615 117.151 12.5671 114.074C12.3568 110.997 12.2784 107.92 12.2734 104.843C12.2744 101.766 12.3538 98.6898 12.5631 95.6126C12.7565 92.5354 13.0432 89.4593 13.5938 86.3821C14.1434 89.4593 14.431 92.5354 14.6245 95.6126C14.8338 98.6898 14.9131 101.766 14.9141 104.843C14.9092 107.92 14.8308 110.997 14.6205 114.074C14.4261 117.151 14.1404 120.228 13.5938 123.304Z" fill="white"/>
<path opacity="0.5" d="M140.971 168.078C140.424 161.591 140.138 155.105 139.944 148.618C139.822 145.374 139.795 142.131 139.724 138.887L139.65 129.157L139.72 119.426C139.793 116.183 139.817 112.94 139.94 109.696C140.133 103.209 140.42 96.7225 140.971 90.2358C141.52 96.7225 141.808 103.209 142.001 109.696C142.124 112.94 142.147 116.183 142.222 119.426L142.291 129.157L142.218 138.887C142.146 142.131 142.119 145.374 141.997 148.618C141.803 155.105 141.517 161.591 140.971 168.078Z" fill="white"/>
<path opacity="0.5" d="M152.738 150.799C152.192 147.722 151.906 144.646 151.712 141.569C151.501 138.492 151.423 135.416 151.418 132.338C151.419 129.261 151.498 126.185 151.708 123.108C151.901 120.031 152.188 116.954 152.738 113.877C153.288 116.954 153.576 120.031 153.769 123.108C153.978 126.185 154.058 129.261 154.059 132.338C154.054 135.416 153.975 138.492 153.765 141.569C153.571 144.645 153.285 147.722 152.738 150.799Z" fill="white"/>
<path opacity="0.5" d="M143.766 51.1334C143.219 48.0562 142.933 44.98 142.739 41.9029C142.529 38.8257 142.45 35.7495 142.445 32.6723C142.446 29.5951 142.526 26.5189 142.735 23.4417C142.928 20.3646 143.215 17.2884 143.766 14.2112C144.315 17.2884 144.603 20.3646 144.796 23.4417C145.006 26.5189 145.085 29.5951 145.086 32.6723C145.081 35.7495 145.003 38.8257 144.792 41.9029C144.598 44.98 144.311 48.0572 143.766 51.1334Z" fill="white"/>
<path opacity="0.5" d="M43.6348 256.04C43.0882 252.963 42.8025 249.887 42.6081 246.809C42.3978 243.732 42.3194 240.656 42.3145 237.579C42.3154 234.502 42.3948 231.425 42.6041 228.348C42.7976 225.271 43.0842 222.195 43.6348 219.118C44.1844 222.195 44.4721 225.271 44.6655 228.348C44.8748 231.425 44.9542 234.502 44.9552 237.579C44.9502 240.656 44.8718 243.732 44.6615 246.809C44.4671 249.887 44.1814 252.964 43.6348 256.04Z" fill="white"/>
<path opacity="0.5" d="M282.803 228.7C282.256 224.629 281.97 220.559 281.776 216.488C281.654 214.452 281.627 212.417 281.556 210.382L281.482 204.276L281.552 198.171C281.625 196.135 281.649 194.099 281.772 192.065C281.966 187.994 282.252 183.923 282.803 179.852C283.352 183.923 283.64 187.994 283.833 192.065C283.956 194.1 283.979 196.136 284.054 198.171L284.123 204.276L284.051 210.382C283.979 212.418 283.953 214.453 283.83 216.488C283.635 220.559 283.349 224.629 282.803 228.7Z" fill="white"/>
<path opacity="0.5" d="M157.919 72.7787C157.372 68.7076 157.087 64.6374 156.892 60.5662C156.77 58.5306 156.743 56.495 156.672 54.4605L156.6 48.3547L156.669 42.2489C156.742 40.2133 156.766 38.1778 156.889 36.1432C157.083 32.072 157.369 28.0018 157.92 23.9307C158.47 28.0018 158.757 32.072 158.951 36.1432C159.074 38.1788 159.096 40.2143 159.171 42.2489L159.24 48.3547L159.168 54.4605C159.096 56.496 159.07 58.5316 158.948 60.5662C158.751 64.6374 158.466 68.7076 157.919 72.7787Z" fill="white"/>
<path opacity="0.5" d="M331.76 194.654C331.213 191.577 330.928 188.501 330.733 185.423C330.523 182.346 330.444 179.27 330.439 176.193C330.44 173.116 330.52 170.039 330.729 166.962C330.923 163.885 331.209 160.809 331.76 157.732C332.309 160.809 332.597 163.885 332.79 166.962C333 170.039 333.078 173.116 333.08 176.193C333.075 179.27 332.997 182.346 332.787 185.423C332.592 188.501 332.306 191.578 331.76 194.654Z" fill="white"/>
<path opacity="0.5" d="M39.1348 135.675C38.5882 125.316 38.3025 114.957 38.1081 104.597C37.9861 99.4179 37.9593 94.2377 37.8879 89.0584L37.8145 73.5198L37.8839 57.9811C37.9573 52.8018 37.9811 47.6216 38.1041 42.4424C38.2976 32.0829 38.5842 21.7235 39.1348 11.364C39.6844 21.7235 39.972 32.0829 40.1655 42.4424C40.2885 47.6216 40.3113 52.8018 40.3857 57.9811L40.4552 73.5198L40.3827 89.0584C40.3113 94.2377 40.2845 99.4179 40.1625 104.597C39.9671 114.958 39.6814 125.317 39.1348 135.675Z" fill="white"/>
<path opacity="0.5" d="M356.844 207.484C356.297 197.125 356.011 186.765 355.817 176.406C355.695 171.227 355.668 166.047 355.597 160.867L355.523 145.329L355.593 129.79C355.666 124.611 355.69 119.43 355.813 114.251C356.007 103.892 356.293 93.5323 356.844 83.1729C357.393 93.5323 357.681 103.892 357.874 114.251C357.997 119.43 358.02 124.611 358.095 129.79L358.164 145.329L358.091 160.867C358.019 166.047 357.993 171.227 357.871 176.406C357.676 186.766 357.39 197.126 356.844 207.484Z" fill="white"/>
<path opacity="0.5" d="M240.668 165.636C240.158 151.882 239.816 138.128 239.641 124.374C239.519 117.496 239.492 110.62 239.421 103.742L239.348 83.1104L239.417 62.4788C239.491 55.6013 239.514 48.7247 239.637 41.8472C239.81 28.0931 240.154 14.339 240.668 0.584961C241.181 14.339 241.526 28.0931 241.699 41.8472C241.822 48.7247 241.845 55.6013 241.919 62.4788L241.988 83.1104L241.915 103.742C241.844 110.62 241.817 117.496 241.695 124.374C241.52 138.128 241.178 151.882 240.668 165.636Z" fill="white"/>
<path opacity="0.5" d="M123.609 193.335C123.063 182.976 122.777 172.617 122.583 162.257C122.461 157.078 122.434 151.898 122.362 146.718L122.289 131.18L122.358 115.641C122.432 110.462 122.456 105.282 122.579 100.102C122.772 89.7428 123.059 79.3834 123.609 69.0239C124.159 79.3834 124.447 89.7428 124.64 100.102C124.763 105.282 124.786 110.462 124.86 115.641L124.93 131.18L124.856 146.718C124.785 151.898 124.758 157.078 124.636 162.257C124.441 172.617 124.155 182.976 123.609 193.335Z" fill="white"/>
</svg>
